<?xml version="1.0" encoding="utf-8"?><svg version="1.1" id="Layer_1" xmlns="http://www.w3.org/2000/svg" xmlns:xlink="http://www.w3.org/1999/xlink" x="0px" y="0px" viewBox="0 0 122.88 65.6" style="enable-background:new 0 0 122.88 65.6" xml:space="preserve"><g><path d="M99.82,23.01c0.92,0.01,1.65,0.76,1.64,1.68c-0.01,0.92-0.76,1.65-1.68,1.64c-5.92-0.08-11.31,0.59-15.84,1.93 c-3.61,1.08-6.65,2.58-8.93,4.47c3.4,2.66,7.09,4.34,10.98,5.34c4.5,1.15,9.3,1.4,14.27,1.2c0.92-0.04,1.69,0.68,1.72,1.59 c0.04,0.92-0.68,1.69-1.59,1.72c-5.26,0.21-10.36-0.06-15.22-1.3c-3.71-0.95-7.26-2.47-10.59-4.75v8.18 c7.69,5.49,15.36,9.67,23.03,12.58c7.24,2.75,14.47,4.37,21.69,4.88c-1.23-9.64-1.75-19.36-1.7-29.15 c0.05-9.8,0.68-19.64,1.74-29.5c-6.88,0.72-13.9,2.26-21.09,4.92c-7.66,2.83-15.53,6.94-23.67,12.69v7.79 c2.36-1.59,5.2-2.88,8.42-3.84C87.83,23.63,93.55,22.92,99.82,23.01L99.82,23.01z M48.07,20.96c-8.06-5.66-15.85-9.72-23.43-12.52 c-7.19-2.66-14.21-4.2-21.09-4.92c1.06,9.86,1.68,19.7,1.74,29.5c0.05,9.79-0.47,19.52-1.7,29.15c7.22-0.51,14.46-2.13,21.69-4.88 c7.59-2.88,15.18-7.01,22.79-12.41v-9.05c-3.35,2.38-6.91,4.05-10.64,5.13c-4.84,1.41-9.94,1.84-15.22,1.63 c-0.92-0.04-1.63-0.81-1.59-1.72c0.04-0.92,0.81-1.63,1.72-1.59c4.95,0.2,9.7-0.2,14.17-1.5c3.79-1.11,7.39-2.87,10.74-5.47 c-2.58-1.61-5.68-2.88-9.07-3.85c-4.84-1.39-10.21-2.16-15.47-2.43c-0.92-0.05-1.62-0.83-1.57-1.74c0.05-0.92,0.83-1.62,1.74-1.57 c5.51,0.28,11.14,1.09,16.21,2.54c3.27,0.94,6.32,2.15,8.97,3.67V20.96L48.07,20.96z M25.78,5.31c7.93,2.94,16.06,7.18,24.44,13.09 h22.44C81.04,12.49,89.17,8.25,97.1,5.31c8.19-3.03,16.17-4.66,23.98-5.3c0.92-0.07,1.72,0.61,1.79,1.53 c0.01,0.13,0,0.27-0.02,0.39c-1.18,10.45-1.88,20.83-1.94,31.1c-0.06,10.3,0.53,20.53,1.94,30.68c0.13,0.91-0.51,1.75-1.42,1.87 c-0.13,0.02-0.25,0.02-0.37,0.01c-8.22-0.36-16.43-2.08-24.64-5.2c-7.99-3.03-15.96-7.38-23.92-13.07H50.36 c-7.96,5.69-15.93,10.04-23.92,13.07c-8.2,3.11-16.42,4.84-24.64,5.2c-0.12,0.01-0.24,0.01-0.37-0.01 c-0.91-0.13-1.54-0.96-1.42-1.87c1.41-10.15,2-20.39,1.94-30.68C1.9,22.75,1.2,12.38,0.02,1.93C0,1.8-0.01,1.67,0.01,1.53 c0.07-0.92,0.87-1.6,1.79-1.53C9.61,0.64,17.58,2.28,25.78,5.31L25.78,5.31z M51.71,21.73v22.25h19.45V33.78 c-0.43-0.58-0.43-1.39,0-1.97V21.73H51.71L51.71,21.73z"/></g></svg>